<svg xmlns="http://www.w3.org/2000/svg" viewBox="-400 -400 11800 8500" role="img" aria-labelledby="title desc"><title id="title">Plan mieszkania — zatwierdzone ustawienie regału regal-przy-lozku</title><desc id="desc">Pełny plan mieszkania z wyróżnionym regałem w pokoju z łóżkiem. Krótsze skrzydło K stoi przy ścianie przeciwległej do okna; dłuższe D przy ścianie dolnej planu. Ustawienie zatwierdzone przez użytkownika.</desc><defs><marker id="arrowFront" markerWidth="12" markerHeight="12" refX="8" refY="5" orient="auto" markerUnits="strokeWidth"><path d="M0,0 L10,5 L0,10 z" fill="#b8003c"/></marker><marker id="arrowDim" markerWidth="9" markerHeight="9" refX="4.5" refY="4.5" orient="auto-start-reverse"><path d="M0,0 L9,4.5 L0,9 z" fill="#333"/></marker><filter id="shadow" x="-20%" y="-20%" width="140%" height="140%"><feDropShadow dx="0" dy="35" stdDeviation="32" flood-opacity=".25"/></filter></defs><g transform="scale(10)"><defs><pattern id="hatch" width="14" height="14" patternTransform="rotate(45)" patternUnits="userSpaceOnUse"><rect width="14" height="14" fill="#ffffff"/><line x1="0" y1="0" x2="0" y2="14" stroke="#1c1c1c" stroke-width="2"/></pattern></defs><polygon points="24,15 394,15 394,239 24,239" fill="#f2f1ed"/><polygon points="406,15 484,15 484,160 406,160" fill="#f2f1ed"/><polygon points="492,15 637,15 637,239 492,239" fill="#f2f1ed"/><polygon points="649,15 982,15 982,499 649,499" fill="#f2f1ed"/><polygon points="24,254 394,254 394,499 24,499" fill="#f2f1ed"/><polygon points="406,160 484,160 484,254 637,254 637,499 406,499" fill="#f2f1ed"/><polygon points="24,514 489,514 489,741 24,741" fill="#f2f1ed"/><path d="M 0 0 H 1006 V 514 H 504 V 756 H 0 Z M 24 15 L 394 15 L 394 239 L 24 239 Z M 406 15 L 484 15 L 484 160 L 406 160 Z M 492 15 L 637 15 L 637 239 L 492 239 Z M 649 15 L 982 15 L 982 499 L 649 499 Z M 24 254 L 394 254 L 394 499 L 24 499 Z M 406 160 L 484 160 L 484 254 L 637 254 L 637 499 L 406 499 Z M 24 514 L 489 514 L 489 741 L 24 741 Z" fill="#1c1c1c" fill-rule="evenodd"/><rect x="1006" y="143" width="80" height="200" fill="#e9e8e3" stroke="#1c1c1c" stroke-width="2"/><line x1="1078" y1="143" x2="1078" y2="343" stroke="#1c1c1c" stroke-width="1.2"/><rect x="0" y="100" width="24" height="136" fill="#ffffff"/><line x1="7" y1="100" x2="7" y2="236" stroke="#1c1c1c" stroke-width="1.8"/><line x1="17" y1="100" x2="17" y2="236" stroke="#1c1c1c" stroke-width="1.8"/><line x1="0" y1="100" x2="24" y2="100" stroke="#1c1c1c" stroke-width="1.5"/><line x1="0" y1="236" x2="24" y2="236" stroke="#1c1c1c" stroke-width="1.5"/><rect x="0" y="257" width="24" height="165" fill="#ffffff"/><line x1="7" y1="257" x2="7" y2="422" stroke="#1c1c1c" stroke-width="1.8"/><line x1="17" y1="257" x2="17" y2="422" stroke="#1c1c1c" stroke-width="1.8"/><line x1="0" y1="257" x2="24" y2="257" stroke="#1c1c1c" stroke-width="1.5"/><line x1="0" y1="422" x2="24" y2="422" stroke="#1c1c1c" stroke-width="1.5"/><rect x="0" y="551" width="24" height="138" fill="#ffffff"/><line x1="7" y1="551" x2="7" y2="689" stroke="#1c1c1c" stroke-width="1.8"/><line x1="17" y1="551" x2="17" y2="689" stroke="#1c1c1c" stroke-width="1.8"/><line x1="0" y1="551" x2="24" y2="551" stroke="#1c1c1c" stroke-width="1.5"/><line x1="0" y1="689" x2="24" y2="689" stroke="#1c1c1c" stroke-width="1.5"/><rect x="982" y="100" width="24" height="140" fill="#ffffff"/><line x1="989" y1="100" x2="989" y2="240" stroke="#1c1c1c" stroke-width="1.8"/><line x1="999" y1="100" x2="999" y2="240" stroke="#1c1c1c" stroke-width="1.8"/><line x1="982" y1="100" x2="1006" y2="100" stroke="#1c1c1c" stroke-width="1.5"/><line x1="982" y1="240" x2="1006" y2="240" stroke="#1c1c1c" stroke-width="1.5"/><rect x="982" y="322" width="24" height="98" fill="#ffffff"/><line x1="989" y1="322" x2="989" y2="420" stroke="#1c1c1c" stroke-width="1.8"/><line x1="999" y1="322" x2="999" y2="420" stroke="#1c1c1c" stroke-width="1.8"/><line x1="982" y1="322" x2="1006" y2="322" stroke="#1c1c1c" stroke-width="1.5"/><line x1="982" y1="420" x2="1006" y2="420" stroke="#1c1c1c" stroke-width="1.5"/><rect x="394" y="158" width="12" height="80" fill="#ffffff"/><line x1="394" y1="158" x2="314" y2="158" stroke="#1c1c1c" stroke-width="2.5"/><path d="M 314 158 A 80 80 0 0 0 394 238" fill="none" stroke="#1c1c1c" stroke-width="1.2"/><rect x="394" y="343" width="12" height="79" fill="#ffffff"/><line x1="394" y1="422" x2="315" y2="422" stroke="#1c1c1c" stroke-width="2.5"/><path d="M 315 422 A 79 79 0 0 1 394 343" fill="none" stroke="#1c1c1c" stroke-width="1.2"/><rect x="637" y="341" width="12" height="79" fill="#ffffff"/><line x1="649" y1="341" x2="728" y2="341" stroke="#1c1c1c" stroke-width="2.5"/><path d="M 728 341 A 79 79 0 0 1 649 420" fill="none" stroke="#1c1c1c" stroke-width="1.2"/><rect x="403" y="499" width="78" height="15" fill="#ffffff"/><line x1="481" y1="514" x2="481" y2="592" stroke="#1c1c1c" stroke-width="2.5"/><path d="M 481 592 A 78 78 0 0 1 403 514" fill="none" stroke="#1c1c1c" stroke-width="1.2"/><rect x="510" y="499" width="82" height="15" fill="#ffffff"/><line x1="592" y1="499" x2="592" y2="417" stroke="#1c1c1c" stroke-width="2.5"/><path d="M 592 417 A 82 82 0 0 0 510 499" fill="none" stroke="#1c1c1c" stroke-width="1.2"/><rect x="484" y="160" width="8" height="79" fill="#ffffff"/><line x1="484" y1="160" x2="405" y2="160" stroke="#1c1c1c" stroke-width="2.5"/><path d="M 405 160 A 79 79 0 0 0 484 239" fill="none" stroke="#1c1c1c" stroke-width="1.2"/><line x1="406" y1="160" x2="406" y2="238" stroke="#1c1c1c" stroke-width="2.5"/><path d="M 406 238 A 78 78 0 0 0 484 160" fill="none" stroke="#1c1c1c" stroke-width="1.2"/><rect x="982" y="240" width="24" height="82" fill="#ffffff"/><line x1="982" y1="240" x2="900" y2="240" stroke="#1c1c1c" stroke-width="2.5"/><path d="M 900 240 A 82 82 0 0 0 982 322" fill="none" stroke="#1c1c1c" stroke-width="1.2"/><path d="M 551 545 L 533 578 L 569 578 Z" fill="#1c1c1c"/><text x="551" y="604" font-family="Helvetica, Arial, 'DejaVu Sans', sans-serif" font-size="15" fill="#111111" text-anchor="middle">wejście</text><rect x="339" y="97" width="55" height="60" fill="url(#hatch)" stroke="#1c1c1c" stroke-width="2"/><text x="388" y="76" font-family="Helvetica, Arial, 'DejaVu Sans', sans-serif" font-size="12" fill="#444444" text-anchor="end">szacht wentylacyjny</text><text x="200" y="108" font-family="Helvetica, Arial, 'DejaVu Sans', sans-serif" font-size="20" font-weight="bold" fill="#111111" text-anchor="middle">Kuchnia</text><text x="200" y="132" font-family="Helvetica, Arial, 'DejaVu Sans', sans-serif" font-size="17" fill="#111111" text-anchor="middle">8,29 m²</text><text x="209" y="364" font-family="Helvetica, Arial, 'DejaVu Sans', sans-serif" font-size="20" font-weight="bold" fill="#111111" text-anchor="middle">Pokój</text><text x="209" y="388" font-family="Helvetica, Arial, 'DejaVu Sans', sans-serif" font-size="17" fill="#111111" text-anchor="middle">9,07 m²</text><text x="256" y="615" font-family="Helvetica, Arial, 'DejaVu Sans', sans-serif" font-size="20" font-weight="bold" fill="#111111" text-anchor="middle">Pokój</text><text x="256" y="639" font-family="Helvetica, Arial, 'DejaVu Sans', sans-serif" font-size="17" fill="#111111" text-anchor="middle">10,56 m²</text><text x="815" y="245" font-family="Helvetica, Arial, 'DejaVu Sans', sans-serif" font-size="22" font-weight="bold" fill="#111111" text-anchor="middle">Salon</text><text x="815" y="269" font-family="Helvetica, Arial, 'DejaVu Sans', sans-serif" font-size="19" fill="#111111" text-anchor="middle">16,12 m²</text><text x="564" y="106" font-family="Helvetica, Arial, 'DejaVu Sans', sans-serif" font-size="16" font-weight="bold" fill="#111111" text-anchor="middle">Łazienka</text><text x="564" y="130" font-family="Helvetica, Arial, 'DejaVu Sans', sans-serif" font-size="13" fill="#111111" text-anchor="middle">3,25 m²</text><text x="445" y="66" font-family="Helvetica, Arial, 'DejaVu Sans', sans-serif" font-size="14" font-weight="bold" fill="#111111" text-anchor="middle">WC</text><text x="445" y="84" font-family="Helvetica, Arial, 'DejaVu Sans', sans-serif" font-size="11" fill="#111111" text-anchor="middle">1,13 m²</text><text x="521" y="380" font-family="Helvetica, Arial, 'DejaVu Sans', sans-serif" font-size="18" font-weight="bold" fill="#111111" text-anchor="middle">Przedpokój</text><text x="521" y="404" font-family="Helvetica, Arial, 'DejaVu Sans', sans-serif" font-size="15" fill="#111111" text-anchor="middle">6,39 m²</text><text x="1046.0" y="243.0" font-family="Helvetica, Arial, 'DejaVu Sans', sans-serif" font-size="15" font-weight="bold" fill="#111111" text-anchor="middle" transform="rotate(-90 1046.0 243.0)">Balkon 1,60 m²</text><text x="755.0" y="584" font-family="Helvetica, Arial, 'DejaVu Sans', sans-serif" font-size="19" font-weight="bold" fill="#a0a0a0" text-anchor="middle">KLATKA SCHODOWA</text><text x="755.0" y="610" font-family="Helvetica, Arial, 'DejaVu Sans', sans-serif" font-size="14" fill="#a0a0a0" text-anchor="middle">(poza mieszkaniem)</text><g transform="translate(755.0,686)"><path d="M 0 0 L -44 44 L -8 14 Z" fill="#1c1c1c"/><path d="M 0 0 L 44 -44 L 14 -8 Z" fill="none" stroke="#1c1c1c" stroke-width="1.6"/><text x="-64" y="62" font-family="Helvetica, Arial, 'DejaVu Sans', sans-serif" font-size="22" font-weight="bold" fill="#111111" text-anchor="middle">N</text></g></g><g id="regal-przy-lozku-overlay"><path d="M2342 7410 L4890 7410 L4890 6026 L4270 6026 L4270 6990 L2342 6990 Z" fill="#b8003c" fill-opacity="0.55" stroke="#7f002a" stroke-width="32" filter="url(#shadow)"/><line x1="4270" y1="6990" x2="4890" y2="6990" stroke="#fff" stroke-width="18" stroke-dasharray="45 32" opacity=".8"/><text x="3300" y="7250" font-family="sans-serif" font-size="130" font-weight="bold" fill="#fff" text-anchor="middle">D — dłuższe skrzydło</text><text x="4640" y="6520" font-family="sans-serif" font-size="118" font-weight="bold" fill="#fff" text-anchor="middle" transform="rotate(-90 4640 6520)">K — krótsze skrzydło</text><text x="3560" y="6850" font-family="sans-serif" font-size="105" font-weight="bold" fill="#7f002a" text-anchor="middle">regal-przy-lozku</text><line x1="3300" y1="6970" x2="3300" y2="6620" stroke="#b8003c" stroke-width="34" marker-end="url(#arrowFront)"/><text x="3300" y="6540" font-family="sans-serif" font-size="92" fill="#7f002a" text-anchor="middle">front D</text><line x1="4250" y1="6500" x2="3900" y2="6500" stroke="#b8003c" stroke-width="34" marker-end="url(#arrowFront)"/><text x="3800" y="6410" font-family="sans-serif" font-size="92" fill="#7f002a" text-anchor="middle">front K</text><rect x="4970" y="6100" width="1540" height="520" rx="50" fill="#fff" fill-opacity=".94" stroke="#7f002a" stroke-width="18"/><text x="5060" y="6290" font-family="sans-serif" font-size="110" font-weight="bold" fill="#111">POKOJ-LOZKO-W2</text><text x="5060" y="6450" font-family="sans-serif" font-size="92" fill="#333">ściana przeciwległa do okna</text><text x="5060" y="6580" font-family="sans-serif" font-size="88" fill="#333">tu stoi krótsze skrzydło K</text><rect x="2690" y="7550" width="1730" height="390" rx="50" fill="#fff" fill-opacity=".94" stroke="#7f002a" stroke-width="18"/><text x="2780" y="7730" font-family="sans-serif" font-size="110" font-weight="bold" fill="#111">POKOJ-LOZKO-W3</text><text x="2780" y="7880" font-family="sans-serif" font-size="92" fill="#333">tu stoi dłuższe skrzydło D</text><line x1="240" y1="6800" x2="2342" y2="6800" stroke="#333" stroke-width="18" marker-start="url(#arrowDim)" marker-end="url(#arrowDim)"/><line x1="240" y1="6740" x2="240" y2="6860" stroke="#333" stroke-width="18"/><line x1="2342" y1="6740" x2="2342" y2="6860" stroke="#333" stroke-width="18"/><text x="1291" y="6715" font-family="sans-serif" font-size="100" font-weight="bold" fill="#111" text-anchor="middle">2102 mm do ściany z oknem</text><line x1="4540" y1="5140" x2="4540" y2="6026" stroke="#333" stroke-width="18" marker-start="url(#arrowDim)" marker-end="url(#arrowDim)"/><line x1="4480" y1="5140" x2="4600" y2="5140" stroke="#333" stroke-width="18"/><line x1="4480" y1="6026" x2="4600" y2="6026" stroke="#333" stroke-width="18"/><text x="4430" y="5600" font-family="sans-serif" font-size="96" font-weight="bold" fill="#111" text-anchor="end">886 mm do ściany z drzwiami</text><line x1="4750" y1="5920" x2="4750" y2="6026" stroke="#006d77" stroke-width="22" marker-start="url(#arrowDim)" marker-end="url(#arrowDim)"/><text x="4660" y="5990" font-family="sans-serif" font-size="86" font-weight="bold" fill="#006d77" text-anchor="end">106 mm luzu do końca otwartych drzwi</text><text x="2565" y="5850" font-family="sans-serif" font-size="125" font-weight="bold" fill="#7f002a" text-anchor="middle">USTAWIENIE ZATWIERDZONE</text></g></svg>