<svg xmlns="http://www.w3.org/2000/svg" viewBox="-600 -500 12200 8800" role="img" aria-labelledby="title desc">
<title id="title">Plan mieszkania ZP3 — poprawiona orientacja</title>
<desc id="desc">Jednostki mm. Układ według rzut_zp3.svg; pokój z łóżkiem niezmieniony.</desc>
<rect x="-600" y="-500" width="12200" height="8800" fill="#f7f6f0"/>
<polygon points="0,0 10060,0 10060,5140 5040,5140 5040,7560 0,7560" fill="#888a81"/>
<polygon points="6120,150 9820,150 9820,2390 6120,2390" fill="#e4edde" stroke="#454b42" stroke-width="14"/>
<text x="7970.0" y="1225.0" text-anchor="middle" font-family="sans-serif" font-size="130" font-weight="bold">Kuchnia</text>
<text x="7970.0" y="1385.0" text-anchor="middle" font-family="sans-serif" font-size="90">KUCHNIA</text>
<text x="7970.0" y="275.0" text-anchor="middle" dominant-baseline="middle" fill="#4d5548" font-family="sans-serif" font-size="88">W1</text>
<text x="9695.0" y="1270.0" text-anchor="middle" dominant-baseline="middle" fill="#4d5548" font-family="sans-serif" font-size="88">W2</text>
<text x="7970.0" y="2265.0" text-anchor="middle" dominant-baseline="middle" fill="#4d5548" font-family="sans-serif" font-size="88">W3</text>
<text x="6245.0" y="1270.0" text-anchor="middle" dominant-baseline="middle" fill="#4d5548" font-family="sans-serif" font-size="88">W4</text>
<polygon points="5220,150 6000,150 6000,1600 5220,1600" fill="#f0e8dd" stroke="#454b42" stroke-width="14"/>
<text x="5610.0" y="830.0" text-anchor="middle" font-family="sans-serif" font-size="130" font-weight="bold">WC</text>
<text x="5610.0" y="990.0" text-anchor="middle" font-family="sans-serif" font-size="90">WC</text>
<text x="5610.0" y="275.0" text-anchor="middle" dominant-baseline="middle" fill="#4d5548" font-family="sans-serif" font-size="88">W1</text>
<text x="5875.0" y="875.0" text-anchor="middle" dominant-baseline="middle" fill="#4d5548" font-family="sans-serif" font-size="88">W2</text>
<text x="5610.0" y="1475.0" text-anchor="middle" dominant-baseline="middle" fill="#4d5548" font-family="sans-serif" font-size="88">W3</text>
<text x="5345.0" y="875.0" text-anchor="middle" dominant-baseline="middle" fill="#4d5548" font-family="sans-serif" font-size="88">W4</text>
<polygon points="3690,150 5140,150 5140,2390 3690,2390" fill="#dde9ed" stroke="#454b42" stroke-width="14"/>
<text x="4415.0" y="1225.0" text-anchor="middle" font-family="sans-serif" font-size="130" font-weight="bold">Łazienka</text>
<text x="4415.0" y="1385.0" text-anchor="middle" font-family="sans-serif" font-size="90">LAZIENKA</text>
<text x="4415.0" y="275.0" text-anchor="middle" dominant-baseline="middle" fill="#4d5548" font-family="sans-serif" font-size="88">W1</text>
<text x="5015.0" y="1270.0" text-anchor="middle" dominant-baseline="middle" fill="#4d5548" font-family="sans-serif" font-size="88">W2</text>
<text x="4415.0" y="2265.0" text-anchor="middle" dominant-baseline="middle" fill="#4d5548" font-family="sans-serif" font-size="88">W3</text>
<text x="3815.0" y="1270.0" text-anchor="middle" dominant-baseline="middle" fill="#4d5548" font-family="sans-serif" font-size="88">W4</text>
<polygon points="240,150 3570,150 3570,4990 240,4990" fill="#ede8d7" stroke="#454b42" stroke-width="14"/>
<text x="1905.0" y="2525.0" text-anchor="middle" font-family="sans-serif" font-size="130" font-weight="bold">Salon</text>
<text x="1905.0" y="2685.0" text-anchor="middle" font-family="sans-serif" font-size="90">SALON</text>
<text x="1905.0" y="275.0" text-anchor="middle" dominant-baseline="middle" fill="#4d5548" font-family="sans-serif" font-size="88">W1</text>
<text x="3445.0" y="2570.0" text-anchor="middle" dominant-baseline="middle" fill="#4d5548" font-family="sans-serif" font-size="88">W2</text>
<text x="1905.0" y="4865.0" text-anchor="middle" dominant-baseline="middle" fill="#4d5548" font-family="sans-serif" font-size="88">W3</text>
<text x="365.0" y="2570.0" text-anchor="middle" dominant-baseline="middle" fill="#4d5548" font-family="sans-serif" font-size="88">W4</text>
<polygon points="6120,2540 9820,2540 9820,4990 6120,4990" fill="#e5e0ec" stroke="#454b42" stroke-width="14"/>
<text x="7970.0" y="3720.0" text-anchor="middle" font-family="sans-serif" font-size="130" font-weight="bold">Pokój</text>
<text x="7970.0" y="3880.0" text-anchor="middle" font-family="sans-serif" font-size="90">POKOJ-9</text>
<text x="7970.0" y="2665.0" text-anchor="middle" dominant-baseline="middle" fill="#4d5548" font-family="sans-serif" font-size="88">W1</text>
<text x="9695.0" y="3765.0" text-anchor="middle" dominant-baseline="middle" fill="#4d5548" font-family="sans-serif" font-size="88">W2</text>
<text x="7970.0" y="4865.0" text-anchor="middle" dominant-baseline="middle" fill="#4d5548" font-family="sans-serif" font-size="88">W3</text>
<text x="6245.0" y="3765.0" text-anchor="middle" dominant-baseline="middle" fill="#4d5548" font-family="sans-serif" font-size="88">W4</text>
<polygon points="5220,1600 6000,1600 6000,4990 3690,4990 3690,2540 5220,2540" fill="#e7e6df" stroke="#454b42" stroke-width="14"/>
<text x="4845.0" y="3250.0" text-anchor="middle" font-family="sans-serif" font-size="130" font-weight="bold">Przedpokój</text>
<text x="4845.0" y="3410.0" text-anchor="middle" font-family="sans-serif" font-size="90">PRZEDPOKOJ</text>
<text x="5610.0" y="1725.0" text-anchor="middle" dominant-baseline="middle" fill="#4d5548" font-family="sans-serif" font-size="88">W1</text>
<text x="5875.0" y="3295.0" text-anchor="middle" dominant-baseline="middle" fill="#4d5548" font-family="sans-serif" font-size="88">W2</text>
<text x="4845.0" y="4865.0" text-anchor="middle" dominant-baseline="middle" fill="#4d5548" font-family="sans-serif" font-size="88">W3</text>
<text x="3815.0" y="3765.0" text-anchor="middle" dominant-baseline="middle" fill="#4d5548" font-family="sans-serif" font-size="88">W4</text>
<text x="4455.0" y="2665.0" text-anchor="middle" dominant-baseline="middle" fill="#4d5548" font-family="sans-serif" font-size="88">W5</text>
<text x="5345.0" y="2070.0" text-anchor="middle" dominant-baseline="middle" fill="#4d5548" font-family="sans-serif" font-size="88">W6</text>
<polygon points="240,5140 4890,5140 4890,7410 240,7410" fill="#e6eada" stroke="#454b42" stroke-width="14"/>
<text x="2565.0" y="6230.0" text-anchor="middle" font-family="sans-serif" font-size="130" font-weight="bold">Pokój z łóżkiem</text>
<text x="2565.0" y="6390.0" text-anchor="middle" font-family="sans-serif" font-size="90">POKOJ-LOZKO</text>
<text x="2565.0" y="5265.0" text-anchor="middle" dominant-baseline="middle" fill="#4d5548" font-family="sans-serif" font-size="88">W1</text>
<text x="4765.0" y="6275.0" text-anchor="middle" dominant-baseline="middle" fill="#4d5548" font-family="sans-serif" font-size="88">W2</text>
<text x="2565.0" y="7285.0" text-anchor="middle" dominant-baseline="middle" fill="#4d5548" font-family="sans-serif" font-size="88">W3</text>
<text x="365.0" y="6275.0" text-anchor="middle" dominant-baseline="middle" fill="#4d5548" font-family="sans-serif" font-size="88">W4</text>
<rect x="9820" y="1000" width="240" height="1360" fill="#3e92b6"><title>Okno — kuchnia</title></rect>
<rect x="9820" y="2570" width="240" height="1650" fill="#3e92b6"><title>Okno — pokój 9,07 m²</title></rect>
<rect x="0" y="5510" width="240" height="1380" fill="#3e92b6"><title>Okno — pokój 10,56 m²</title></rect>
<rect x="0" y="1000" width="240" height="1400" fill="#3e92b6"><title>Okno — salon, część północna</title></rect>
<rect x="0" y="3220" width="240" height="980" fill="#3e92b6"><title>Okno — salon, część południowa</title></rect>
<rect x="0" y="2400" width="240" height="820" fill="#c68c47"><title>Drzwi balkonowe</title></rect>
<rect x="4030" y="4990" width="780" height="150" fill="#c68c47"><title>Drzwi — pokój 10,56 m²</title></rect>
<rect x="5100" y="4990" width="820" height="150" fill="#c68c47"><title>Drzwi wejściowe do mieszkania</title></rect>
<rect x="6000" y="1580" width="120" height="800" fill="#c68c47"><title>Drzwi — kuchnia</title></rect>
<rect x="6000" y="3430" width="120" height="790" fill="#c68c47"><title>Drzwi — pokój 9,07 m²</title></rect>
<rect x="5140" y="1600" width="80" height="790" fill="#c68c47"><title>Drzwi — łazienka</title></rect>
<rect x="5220" y="1500" width="780" height="200" fill="#c68c47"><title>Otwór drzwiowy — WC</title></rect>
<rect x="3570" y="3410" width="120" height="790" fill="#c68c47"><title>Drzwi — salon</title></rect>
<rect x="6120" y="970" width="550" height="600" fill="#888a81"/><text x="6395.0" y="1270.0" text-anchor="middle" font-family="sans-serif" font-size="80">SZACHT</text>
<g font-family="sans-serif" font-size="105" fill="#354235"><text x="-300" y="-220" font-size="165" font-weight="bold">Plan odniesienia do ustawiania mebli</text><text x="5400" y="5600">SALON-W4: długa ściana od strony</text><text x="5400" y="5780">łazienki i przedpokoju.</text><text x="5400" y="6180">Niebieski: okna · Pomarańczowy: drzwi</text><text x="5400" y="6460">SVG: X w prawo, Z w dół; Y = wysokość.</text><text x="5400" y="6740">Współrzędne w mm. Skala zgodna z rendererem.</text><text x="5400" y="7020">Nie zastępuje pomiaru mieszkania.</text></g>
<!-- FURNITURE_OVERLAY: wstaw tu grupę mebla, strzałkę frontu i wymiary przed potwierdzeniem. -->
</svg>
