<svg xmlns="http://www.w3.org/2000/svg" width="420mm" height="297mm" viewBox="0 0 2100 1485" xmlns:c2pa="http://c2pa.org/manifest"><metadata><c2pa:manifest>AAAWgmp1bWIAAAAeanVtZGMycGEAEQAQgAAAqgA4m3EDYzJwYQAAABZcanVtYgAAAEdqdW1kYzJtYQARABCAAACqADibcQN1cm46YzJwYTpjNzkxMDcyYy03Y2RmLTQ3ODMtOGZjZi03OWIyZWE0MTc4NGEAAAADl2p1bWIAAAApanVtZGMyYXMAEQAQgAAAqgA4m3EDYzJwYS5hc3NlcnRpb25zAAAAALxqdW1iAAAARGp1bWRjYm9yABEAEIAAAKoAOJtxE2MycGEuaW5ncmVkaWVudC52MwAAAAAYYzJzaIpaIaTkKqXpelzv5r44SLgAAABwY2JvcqNpZGM6Zm9ybWF0bWltYWdlL3N2Zyt4bWxqaW5zdGFuY2VJRHgseG1wOmlpZDowOGM0N2I1Ni04NzdlLTQwZGEtYjA0Mi0wZjk5Njg0ZmRlZDNscmVsYXRpb25zaGlwaHBhcmVudE9mAAAB4mp1bWIAAABBanVtZGNib3IAEQAQgAAAqgA4m3ETYzJwYS5hY3Rpb25zLnYyAAAAABhjMnNoiuOA4M2q94vz6H/dYnBNeAAAAZljYm9yomdhY3Rpb25zgqJmYWN0aW9ua2MycGEub3BlbmVkanBhcmFtZXRlcnOha2luZ3JlZGllbnRzgaJjdXJseC1zZWxmI2p1bWJmPWMycGEuYXNzZXJ0aW9ucy9jMnBhLmluZ3JlZGllbnQudjNkaGFzaFggXRuDtr4M4W3EnW4H1keYGe70Y8MIr+UgORiR6U4LEqekZmFjdGlvbngdY29tLmFudGhyb3BpYy5jbGF1ZGUucHJvdmlkZWRqcGFyYW1ldGVyc6F4H2NvbS5hbnRocm9waWMub3JpZ2luLWNvbmZpZGVuY2VndW5rbm93bmtkZXNjcmlwdGlvbnhmQ2xhdWRlIHByb3ZpZGVkIHRoaXMgZmlsZSBhdCB0aGUgcmVxdWVzdCBvZiBhIHVzZXIgYW5kIG1heSBoYXZlIGNyZWF0ZWQgb3IgbW9kaWZpZWQgdGhlIGZpbGUgY29udGVudHMubXNvZnR3YXJlQWdlbnShZG5hbWVmQ2xhdWRlcmFsbEFjdGlvbnNJbmNsdWRlZPUAAADIanVtYgAAAEBqdW1kY2JvcgARABCAAACqADibcRNjMnBhLmhhc2guZGF0YQAAAAAYYzJzaHLG8bBBf3OwG1Zm15/aDhQAAACAY2JvcqVjYWxnZnNoYTI1NmNwYWRNAAAAAAAAAAAAAAAAAGRoYXNoWCBttDsKKmAaUv5cdXhmdmbUFWNhg8isJLIE/LboxbZyMWRuYW1lbmp1bWJmIG1hbmlmZXN0amV4Y2x1c2lvbnOBomVzdGFydBicZmxlbmd0aBkeBAAAAj5qdW1iAAAAJ2p1bWRjMmNsABEAEIAAAKoAOJtxA2MycGEuY2xhaW0udjIAAAACD2Nib3KlY2FsZ2ZzaGEyNTZpc2lnbmF0dXJleE1zZWxmI2p1bWJmPS9jMnBhL3VybjpjMnBhOmM3OTEwNzJjLTdjZGYtNDc4My04ZmNmLTc5YjJlYTQxNzg0YS9jMnBhLnNpZ25hdHVyZWppbnN0YW5jZUlEeCx4bXA6aWlkOjQwZjk3ZWI5LWYzNmUtNGY3Yi04M2EzLWRhMjdkOGE4ZTY0NnJjcmVhdGVkX2Fzc2VydGlvbnODomN1cmx4LXNlbGYjanVtYmY9YzJwYS5hc3NlcnRpb25zL2MycGEuaW5ncmVkaWVudC52M2RoYXNoWCBdG4O2vgzhbcSdbgfWR5gZ7vRjwwiv5SA5GJHpTgsSp6JjdXJseCpzZWxmI2p1bWJmPWMycGEuYXNzZXJ0aW9ucy9jMnBhLmFjdGlvbnMudjJkaGFzaFggFOPHGdxSoc9QJZBBAdt6S8tRPsTleWr0/Wz5SZI9/PqiY3VybHgpc2VsZiNqdW1iZj1jMnBhLmFzc2VydGlvbnMvYzJwYS5oYXNoLmRhdGFkaGFzaFggfoJBGsAVPuwYWIlWu7TzdwdgTibJjbwkia+nlfIzO490Y2xhaW1fZ2VuZXJhdG9yX2luZm+jZG5hbWVvQW50aHJvcGljIEZpbGVzZ3ZlcnNpb25lMS4wLjBrc3BlY1ZlcnNpb25lMi40LjAAABA4anVtYgAAAChqdW1kYzJjcwARABCAAACqADibcQNjMnBhLnNpZ25hdHVyZQAAABAIY2JvctKEWQISogEmGCFZAgowggIGMIIBjaADAgECAhRA5aAK7sI50L64g/oGQgU9Z1UTADAKBggqhkjOPQQDAzBJMRcwFQYDVQQKEw5BbnRocm9waWMsIFBCQzEuMCwGA1UEAxMlQW50aHJvcGljIENvbnRlbnQgQ3JlZGVudGlhbHMgUm9vdCBDQTAeFw0yNjA4MDcxODQzNTZaFw0yODA4MDYxOTQzNTZaMEQxFzAVBgNVBAoTDkFudGhyb3BpYywgUEJDMSkwJwYDVQQDEyBBbnRocm9waWMgQ2xhdWRlIENvbnRlbnQgU2lnbmluZzBZMBMGByqGSM49AgEGCCqGSM49AwEHA0IABJh6CmvLUBgFFNU0vUKlOVtE6djd17L5SuwX0LemFisBM3dkd/3cyjxFA3Qo5S46fX0/ihY0VZ7mfb9KF703t5OjWDBWMA4GA1UdDwEB/wQEAwIHgDAVBgNVHSUEDjAMBgorBgEEAYPoXgIBMAwGA1UdEwEB/wQCMAAwHwYDVR0jBBgwFoAUzlHiBIFOZFsj+OPEz5o+nMHXXMIwCgYIKoZIzj0EAwMDZwAwZAIwMXMdFJ4BetLLVY7ORuE9noqbbAZOZn/aArXyTwFAZfKrPzxF2vPoJNf1+UCdg1XGAjBwX1zd9WGqYkqmL5SFqw1QySjr1zJfpJM9+1rdDwSPLMOPOjKuiXjoU/pUUeG9RwmhY3BhZFkNngAAAAAAAAAAAAAAAAAAAAAAAAAAAAAAAAAAAAAAAAAAAAAAAAAAAAAAAAAAAAAAAAAAAAAAAAAAAAAAAAAAAAAAAAAAAAAAAAAAAAAAAAAAAAAAAAAAAAAAAAAAAAAAAAAAAAAAAAAAAAAAAAAAAAAAAAAAAAAAAAAAAAAAAAAAAAAAAAAAAAAAAAAAAAAAAAAAAAAAAAAAAAAAAAAAAAAAAAAAAAAAAAAAAAAAAAAAAAAAAAAAAAAAAAAAAAAAAAAAAAAAAAAAAAAAAAAAAAAAAAAAAAAAAAAAAAAAAAAAAAAAAAAAAAAAAAAAAAAAAAAAAAAAAAAAAAAAAAAAAAAAAAAAAAAAAAAAAAAAAAAAAAAAAAAAAAAAAAAAAAAAAAAAAAAAAAAAAAAAAAAAAAAAAAAAAAAAAAAAAAAAAAAAAAAAAAAAAAAAAAAAAAAAAAAAAAAAAAAAAAAAAAAAAAAAAAAAAAAAAAAAAAAAAAAAAAAAAAAAAAAAAAAAAAAAAAAAAAAAAAAAAAAAAAAAAAAAAAAAAAAAAAAAAAAAAAAAAAAAAAAAAAAAAAAAAAAAAAAAAAAAAAAAAAAAAAAAAAAAAAAAAAAAAAAAAAAAAAAAAAAAAAAAAAAAAAAAAAAAAAAAAAAAAAAAAAAAAAAAAAAAAAAAAAAAAAAAAAAAAAAAAAAAAAAAAAAAAAAAAAAAAAAAAAAAAAAAAAAAAAAAAAAAAAAAAAAAAAAAAAAAAAAAAAAAAAAAAAAAAAAAAAAAAAAAAAAAAAAAAAAAAAAAAAAAAAAAAAAAAAAAAAAAAAAAAAAAAAAAAAAAAAAAAAAAAAAAAAAAAAAAAAAAAAAAAAAAAAAAAAAAAAAAAAAAAAAAAAAAAAAAAAAAAAAAAAAAAAAAAAAAAAAAAAAAAAAAAAAAAAAAAAAAAAAAAAAAAAAAAAAAAAAAAAAAAAAAAAAAAAAAAAAAAAAAAAAAAAAAAAAAAAAAAAAAAAAAAAAAAAAAAAAAAAAAAAAAAAAAAAAAAAAAAAAAAAAAAAAAAAAAAAAAAAAAAAAAAAAAAAAAAAAAAAAAAAAAAAAAAAAAAAAAAAAAAAAAAAAAAAAAAAAAAAAAAAAAAAAAAAAAAAAAAAAAAAAAAAAAAAAAAAAAAAAAAAAAAAAAAAAAAAAAAAAAAAAAAAAAAAAAAAAAAAAAAAAAAAAAAAAAAAAAAAAAAAAAAAAAAAAAAAAAAAAAAAAAAAAAAAAAAAAAAAAAAAAAAAAAAAAAAAAAAAAAAAAAAAAAAAAAAAAAAAAAAAAAAAAAAAAAAAAAAAAAAAAAAAAAAAAAAAAAAAAAAAAAAAAAAAAAAAAAAAAAAAAAAAAAAAAAAAAAAAAAAAAAAAAAAAAAAAAAAAAAAAAAAAAAAAAAAAAAAAAAAAAAAAAAAAAAAAAAAAAAAAAAAAAAAAAAAAAAAAAAAAAAAAAAAAAAAAAAAAAAAAAAAAAAAAAAAAAAAAAAAAAAAAAAAAAAAAAAAAAAAAAAAAAAAAAAAAAAAAAAAAAAAAAAAAAAAAAAAAAAAAAAAAAAAAAAAAAAAAAAAAAAAAAAAAAAAAAAAAAAAAAAAAAAAAAAAAAAAAAAAAAAAAAAAAAAAAAAAAAAAAAAAAAAAAAAAAAAAAAAAAAAAAAAAAAAAAAAAAAAAAAAAAAAAAAAAAAAAAAAAAAAAAAAAAAAAAAAAAAAAAAAAAAAAAAAAAAAAAAAAAAAAAAAAAAAAAAAAAAAAAAAAAAAAAAAAAAAAAAAAAAAAAAAAAAAAAAAAAAAAAAAAAAAAAAAAAAAAAAAAAAAAAAAAAAAAAAAAAAAAAAAAAAAAAAAAAAAAAAAAAAAAAAAAAAAAAAAAAAAAAAAAAAAAAAAAAAAAAAAAAAAAAAAAAAAAAAAAAAAAAAAAAAAAAAAAAAAAAAAAAAAAAAAAAAAAAAAAAAAAAAAAAAAAAAAAAAAAAAAAAAAAAAAAAAAAAAAAAAAAAAAAAAAAAAAAAAAAAAAAAAAAAAAAAAAAAAAAAAAAAAAAAAAAAAAAAAAAAAAAAAAAAAAAAAAAAAAAAAAAAAAAAAAAAAAAAAAAAAAAAAAAAAAAAAAAAAAAAAAAAAAAAAAAAAAAAAAAAAAAAAAAAAAAAAAAAAAAAAAAAAAAAAAAAAAAAAAAAAAAAAAAAAAAAAAAAAAAAAAAAAAAAAAAAAAAAAAAAAAAAAAAAAAAAAAAAAAAAAAAAAAAAAAAAAAAAAAAAAAAAAAAAAAAAAAAAAAAAAAAAAAAAAAAAAAAAAAAAAAAAAAAAAAAAAAAAAAAAAAAAAAAAAAAAAAAAAAAAAAAAAAAAAAAAAAAAAAAAAAAAAAAAAAAAAAAAAAAAAAAAAAAAAAAAAAAAAAAAAAAAAAAAAAAAAAAAAAAAAAAAAAAAAAAAAAAAAAAAAAAAAAAAAAAAAAAAAAAAAAAAAAAAAAAAAAAAAAAAAAAAAAAAAAAAAAAAAAAAAAAAAAAAAAAAAAAAAAAAAAAAAAAAAAAAAAAAAAAAAAAAAAAAAAAAAAAAAAAAAAAAAAAAAAAAAAAAAAAAAAAAAAAAAAAAAAAAAAAAAAAAAAAAAAAAAAAAAAAAAAAAAAAAAAAAAAAAAAAAAAAAAAAAAAAAAAAAAAAAAAAAAAAAAAAAAAAAAAAAAAAAAAAAAAAAAAAAAAAAAAAAAAAAAAAAAAAAAAAAAAAAAAAAAAAAAAAAAAAAAAAAAAAAAAAAAAAAAAAAAAAAAAAAAAAAAAAAAAAAAAAAAAAAAAAAAAAAAAAAAAAAAAAAAAAAAAAAAAAAAAAAAAAAAAAAAAAAAAAAAAAAAAAAAAAAAAAAAAAAAAAAAAAAAAAAAAAAAAAAAAAAAAAAAAAAAAAAAAAAAAAAAAAAAAAAAAAAAAAAAAAAAAAAAAAAAAAAAAAAAAAAAAAAAAAAAAAAAAAAAAAAAAAAAAAAAAAAAAAAAAAAAAAAAAAAAAAAAAAAAAAAAAAAAAAAAAAAAAAAAAAAAAAAAAAAAAAAAAAAAAAAAAAAAAAAAAAAAAAAAAAAAAAAAAAAAAAAAAAAAAAAAAAAAAAAAAAAAAAAAAAAAAAAAAAAAAAAAAAAAAAAAAAAAAAAAAAAAAAAAAAAAAAAAAAAAAAAAAAAAAAAAAAAAAAAAAAAAAAAAAAAAAAAAAAAAAAAAAAAAAAAAAAAAAAAAAAAAAAAAAAAAAAAAAAAAAAAAAAAAAAAAAAAAAAAAAAAAAAAAAAAAAAAAAAAAAAAAAAAAAAAAAAAAAAAAAAAAAAAAAAAAAAAAAAAAAAAAAAAAAAAAAAAAAAAAAAAAAAAAAAAAAAAAAAAAAAAAAAAAAAAAAAAAAAAAAAAAAAAAAAAAAAAAAAAAAAAAAAAAAAAAAAAAAAAAAAAAAAAAAAAAAAAAAAAAAAAAAAAAAAAAAAAAAAAAAAAAAAAAAAAAAAAAAAAAAAAAAAAAAAAAAAAAAAAAAAAAAAAAAAAAAAAAAAAAAAAAAAAAAAAAAAAAAAAAAAAAAAAAAAAAAAAAAAAAAAAAAAAAAAAAAAAAAAAAAAAAAAAAAAAAAAAAAAAAAAAAAAAAAAAAAAAAAAAAAAAAAAAAAAAAAAAAAAAAAAAAAAAAAAAAAAAAAAAAAAAAAAAAAAAAAAAAAAAAAAAAAAAAAAAAAAAAAAAAAAAAAAAAAAAAAAAAAAAAAAAAAAAAAAAAAAAAAAAAAAAAAAAAAAAAAAAAAAAAAAAAAAAAAAAAAAAAAAAAAAAAAAAAAAAAAAAAAAAAAAAAAAAAAAAAAAAAAAAAAAAAAAAAAAAAAAAAAAAAAAAAAAAAAAAAAAAAAAAAAAAAAAAAAAAAAAAAAAAAAAAAAAAAAAAAAAAAAAAAAAAAAAAAAAAAAAAAAAAAAAAAAAAAAAAAAAAAAAAAAAAAAAAAAAAAAAAAAAAAAAAAAAAAAAAAAAAAAAAAAAAAAAAAAAAAAAAAAAAAAAAAAAAAAAAAAAAAAAAAAAAAAAAAAAAAAAAAAAAAAAAAAAAAAAAAAAAAAAAAAAAAAAAAAAAAAAAAAAAAAAAAAAAAAAAAAAAAAAAAAAAAAAAAAAAAAAAAAAAAAAAAAAAAAAAAAAAAAAAAAAAAAAAAAAAAAAAAAAAAAAAAAAAAAAAAAAAAAAAAAAAAAAAAAAAAAAAAAAAAAAAAAAAAAAAAAAAAAAAAAAAAAAAAAAAAAAAAAAAAAAAAAAAAAAAAAAAAAAAAAAAAAAAAAAAAAAAAAAAAAAAAAAAAAAAAAAAAAAAAAAAAAAAAAAAAAAAAAAAAAAAAAAAAAAAAAAAAAAAAAAAAAAAAAAAAAAAAAAAAAAAAAAAAAAAAAAAAAAAAAAAAAAAAAAAAAAAAAAAAAAAAAAAAAAAAAAAAAAAAAAAAAAAAAAAAAAAAAAAAAAAAAAAAAAAAAAAAAAAAAAAAAAAAAAAAAAAAAAAAAAAAAAAAAAAAAAAAAAAAAAAAAAAAAAAAAAAAAAAAAAAAAAAAAAAAAAAAAAAAAAAAAAAAAAAAAAAAAAAAAAAAAAAAAAAAAAAAAAAAAAAAAAAAAAAAAAAAAAAAAAAAAAAAAAAAAAAAAAAAAAAAAAAAAAAAAAAAAAAAAAAAAAAAAAAAAAAAAAAAAAAAAAPZYQM5b2SV5uRrx+hSalZhVTe9hKci35qjqclcINGnkcwqYk1DR29vCQ5NvGgd0uL164tFWEkOO22gvMHG1gSI36nI=</c2pa:manifest></metadata>
<defs><pattern id="hatch" width="14" height="14" patternTransform="rotate(45)" patternUnits="userSpaceOnUse"><rect width="14" height="14" fill="#ffffff"/><line x1="0" y1="0" x2="0" y2="14" stroke="#1c1c1c" stroke-width="2"/></pattern></defs>
<rect width="2100" height="1485" fill="#ffffff"/>
<text x="100" y="86" font-family="Helvetica, Arial, 'DejaVu Sans', sans-serif" font-size="33" font-weight="bold" fill="#111111">RZUT MIESZKANIA</text>
<text x="100" y="124" font-family="Helvetica, Arial, 'DejaVu Sans', sans-serif" font-size="17" fill="#444444">Warszawa, ul. Złotych Piasków 3 · skala 1:50 (A3) · wymiary w cm, w świetle ścian</text>
<line x1="100" y1="144" x2="1420" y2="144" stroke="#111111" stroke-width="2"/>
<g transform="translate(375,320)">
<polygon points="612,15 982,15 982,239 612,239" fill="#f2f1ed"/>
<polygon points="522,15 600,15 600,160 522,160" fill="#f2f1ed"/>
<polygon points="369,15 514,15 514,239 369,239" fill="#f2f1ed"/>
<polygon points="24,15 357,15 357,499 24,499" fill="#f2f1ed"/>
<polygon points="612,254 982,254 982,499 612,499" fill="#f2f1ed"/>
<polygon points="600,160 522,160 522,254 369,254 369,499 600,499" fill="#f2f1ed"/>
<polygon points="24,514 489,514 489,741 24,741" fill="#f2f1ed"/>
<path d="M 0 0 H 1006 V 514 H 504 V 756 H 0 Z M 612 15 L 982 15 L 982 239 L 612 239 Z M 522 15 L 600 15 L 600 160 L 522 160 Z M 369 15 L 514 15 L 514 239 L 369 239 Z M 24 15 L 357 15 L 357 499 L 24 499 Z M 612 254 L 982 254 L 982 499 L 612 499 Z M 600 160 L 522 160 L 522 254 L 369 254 L 369 499 L 600 499 Z M 24 514 L 489 514 L 489 741 L 24 741 Z" fill="#1c1c1c" fill-rule="evenodd"/>
<rect x="-100" y="15" width="100" height="484" fill="#e9e8e3" stroke="#1c1c1c" stroke-width="2"/>
<line x1="-92" y1="15" x2="-92" y2="499" stroke="#1c1c1c" stroke-width="1.2"/>
<rect x="982" y="100" width="24" height="136" fill="#ffffff" stroke="none" stroke-width="0"/>
<line x1="989" y1="100" x2="989" y2="236" stroke="#1c1c1c" stroke-width="1.8"/>
<line x1="999" y1="100" x2="999" y2="236" stroke="#1c1c1c" stroke-width="1.8"/>
<line x1="982" y1="100" x2="1006" y2="100" stroke="#1c1c1c" stroke-width="1.5"/>
<line x1="982" y1="236" x2="1006" y2="236" stroke="#1c1c1c" stroke-width="1.5"/>
<rect x="982" y="257" width="24" height="165" fill="#ffffff" stroke="none" stroke-width="0"/>
<line x1="989" y1="257" x2="989" y2="422" stroke="#1c1c1c" stroke-width="1.8"/>
<line x1="999" y1="257" x2="999" y2="422" stroke="#1c1c1c" stroke-width="1.8"/>
<line x1="982" y1="257" x2="1006" y2="257" stroke="#1c1c1c" stroke-width="1.5"/>
<line x1="982" y1="422" x2="1006" y2="422" stroke="#1c1c1c" stroke-width="1.5"/>
<rect x="0" y="551" width="24" height="138" fill="#ffffff" stroke="none" stroke-width="0"/>
<line x1="7" y1="551" x2="7" y2="689" stroke="#1c1c1c" stroke-width="1.8"/>
<line x1="17" y1="551" x2="17" y2="689" stroke="#1c1c1c" stroke-width="1.8"/>
<line x1="0" y1="551" x2="24" y2="551" stroke="#1c1c1c" stroke-width="1.5"/>
<line x1="0" y1="689" x2="24" y2="689" stroke="#1c1c1c" stroke-width="1.5"/>
<rect x="0" y="100" width="24" height="140" fill="#ffffff" stroke="none" stroke-width="0"/>
<line x1="7" y1="100" x2="7" y2="240" stroke="#1c1c1c" stroke-width="1.8"/>
<line x1="17" y1="100" x2="17" y2="240" stroke="#1c1c1c" stroke-width="1.8"/>
<line x1="0" y1="100" x2="24" y2="100" stroke="#1c1c1c" stroke-width="1.5"/>
<line x1="0" y1="240" x2="24" y2="240" stroke="#1c1c1c" stroke-width="1.5"/>
<rect x="0" y="322" width="24" height="98" fill="#ffffff" stroke="none" stroke-width="0"/>
<line x1="7" y1="322" x2="7" y2="420" stroke="#1c1c1c" stroke-width="1.8"/>
<line x1="17" y1="322" x2="17" y2="420" stroke="#1c1c1c" stroke-width="1.8"/>
<line x1="0" y1="322" x2="24" y2="322" stroke="#1c1c1c" stroke-width="1.5"/>
<line x1="0" y1="420" x2="24" y2="420" stroke="#1c1c1c" stroke-width="1.5"/>
<rect x="600" y="158" width="12" height="80" fill="#ffffff" stroke="none" stroke-width="0"/>
<line x1="612" y1="158" x2="692" y2="158" stroke="#1c1c1c" stroke-width="2.5"/>
<path d="M 692 158 A 80 80 0 0 1 612 238" fill="none" stroke="#1c1c1c" stroke-width="1.2"/>
<rect x="600" y="343" width="12" height="79" fill="#ffffff" stroke="none" stroke-width="0"/>
<line x1="612" y1="422" x2="691" y2="422" stroke="#1c1c1c" stroke-width="2.5"/>
<path d="M 691 422 A 79 79 0 0 0 612 343" fill="none" stroke="#1c1c1c" stroke-width="1.2"/>
<rect x="357" y="341" width="12" height="79" fill="#ffffff" stroke="none" stroke-width="0"/>
<line x1="357" y1="341" x2="278" y2="341" stroke="#1c1c1c" stroke-width="2.5"/>
<path d="M 278 341 A 79 79 0 0 0 357 420" fill="none" stroke="#1c1c1c" stroke-width="1.2"/>
<rect x="403" y="499" width="78" height="15" fill="#ffffff" stroke="none" stroke-width="0"/>
<line x1="481" y1="514" x2="481" y2="592" stroke="#1c1c1c" stroke-width="2.5"/>
<path d="M 481 592 A 78 78 0 0 1 403 514" fill="none" stroke="#1c1c1c" stroke-width="1.2"/>
<rect x="510" y="499" width="82" height="15" fill="#ffffff" stroke="none" stroke-width="0"/>
<line x1="592" y1="499" x2="592" y2="417" stroke="#1c1c1c" stroke-width="2.5"/>
<path d="M 592 417 A 82 82 0 0 0 510 499" fill="none" stroke="#1c1c1c" stroke-width="1.2"/>
<rect x="514" y="160" width="8" height="79" fill="#ffffff" stroke="none" stroke-width="0"/>
<line x1="522" y1="160" x2="601" y2="160" stroke="#1c1c1c" stroke-width="2.5"/>
<path d="M 601 160 A 79 79 0 0 1 522 239" fill="none" stroke="#1c1c1c" stroke-width="1.2"/>
<line x1="600" y1="160" x2="600" y2="238" stroke="#1c1c1c" stroke-width="2.5"/>
<path d="M 600 238 A 78 78 0 0 1 522 160" fill="none" stroke="#1c1c1c" stroke-width="1.2"/>
<rect x="0" y="240" width="24" height="82" fill="#ffffff" stroke="none" stroke-width="0"/>
<line x1="24" y1="322" x2="106" y2="322" stroke="#1c1c1c" stroke-width="2.5"/>
<path d="M 106 322 A 82 82 0 0 0 24 240" fill="none" stroke="#1c1c1c" stroke-width="1.2"/>
<path d="M 551 545 L 533 578 L 569 578 Z" fill="#1c1c1c"/>
<text x="551" y="604" font-family="Helvetica, Arial, 'DejaVu Sans', sans-serif" font-size="15" font-weight="normal" fill="#111111" text-anchor="middle">wejście</text>
<rect x="612" y="97" width="55" height="60" fill="url(#hatch)" stroke="#1c1c1c" stroke-width="2"/>
<text x="673" y="76" font-family="Helvetica, Arial, 'DejaVu Sans', sans-serif" font-size="12" font-weight="normal" fill="#444444" text-anchor="start">szacht wentylacyjny</text>
<text x="806" y="108" font-family="Helvetica, Arial, 'DejaVu Sans', sans-serif" font-size="20" font-weight="bold" fill="#111111" text-anchor="middle">Kuchnia</text>
<text x="806" y="132" font-family="Helvetica, Arial, 'DejaVu Sans', sans-serif" font-size="17" font-weight="normal" fill="#111111" text-anchor="middle">8,29 m²</text>
<text x="806" y="154" font-family="Helvetica, Arial, 'DejaVu Sans', sans-serif" font-size="14" font-weight="normal" fill="#555555" text-anchor="middle">370 × 224</text>
<text x="797" y="364" font-family="Helvetica, Arial, 'DejaVu Sans', sans-serif" font-size="20" font-weight="bold" fill="#111111" text-anchor="middle">Pokój</text>
<text x="797" y="388" font-family="Helvetica, Arial, 'DejaVu Sans', sans-serif" font-size="17" font-weight="normal" fill="#111111" text-anchor="middle">9,07 m²</text>
<text x="797" y="410" font-family="Helvetica, Arial, 'DejaVu Sans', sans-serif" font-size="14" font-weight="normal" fill="#555555" text-anchor="middle">370 × 245</text>
<text x="256" y="615" font-family="Helvetica, Arial, 'DejaVu Sans', sans-serif" font-size="20" font-weight="bold" fill="#111111" text-anchor="middle">Pokój</text>
<text x="256" y="639" font-family="Helvetica, Arial, 'DejaVu Sans', sans-serif" font-size="17" font-weight="normal" fill="#111111" text-anchor="middle">10,56 m²</text>
<text x="256" y="661" font-family="Helvetica, Arial, 'DejaVu Sans', sans-serif" font-size="14" font-weight="normal" fill="#555555" text-anchor="middle">465 × 227</text>
<text x="191" y="245" font-family="Helvetica, Arial, 'DejaVu Sans', sans-serif" font-size="22" font-weight="bold" fill="#111111" text-anchor="middle">Salon</text>
<text x="191" y="269" font-family="Helvetica, Arial, 'DejaVu Sans', sans-serif" font-size="19" font-weight="normal" fill="#111111" text-anchor="middle">16,12 m²</text>
<text x="191" y="291" font-family="Helvetica, Arial, 'DejaVu Sans', sans-serif" font-size="16" font-weight="normal" fill="#555555" text-anchor="middle">333 × 484</text>
<text x="442" y="106" font-family="Helvetica, Arial, 'DejaVu Sans', sans-serif" font-size="16" font-weight="bold" fill="#111111" text-anchor="middle">Łazienka</text>
<text x="442" y="130" font-family="Helvetica, Arial, 'DejaVu Sans', sans-serif" font-size="13" font-weight="normal" fill="#111111" text-anchor="middle">3,25 m²</text>
<text x="442" y="152" font-family="Helvetica, Arial, 'DejaVu Sans', sans-serif" font-size="10" font-weight="normal" fill="#555555" text-anchor="middle">145 × 224</text>
<text x="561" y="66" font-family="Helvetica, Arial, 'DejaVu Sans', sans-serif" font-size="14" font-weight="bold" fill="#111111" text-anchor="middle">WC</text>
<text x="561" y="84" font-family="Helvetica, Arial, 'DejaVu Sans', sans-serif" font-size="11" font-weight="normal" fill="#111111" text-anchor="middle">1,13 m²</text>
<text x="485" y="380" font-family="Helvetica, Arial, 'DejaVu Sans', sans-serif" font-size="18" font-weight="bold" fill="#111111" text-anchor="middle">Przedpokój</text>
<text x="485" y="404" font-family="Helvetica, Arial, 'DejaVu Sans', sans-serif" font-size="15" font-weight="normal" fill="#111111" text-anchor="middle">6,39 m²</text>
<text x="-50.0" y="257.0" font-family="Helvetica, Arial, 'DejaVu Sans', sans-serif" font-size="15" font-weight="bold" fill="#111111" text-anchor="middle" transform="rotate(-90 -50.0 257.0)">Balkon 4,84 m² · 484 × 100</text>
<text x="755.0" y="572" font-family="Helvetica, Arial, 'DejaVu Sans', sans-serif" font-size="19" font-weight="bold" fill="#a0a0a0" text-anchor="middle">KLATKA SCHODOWA</text>
<text x="755.0" y="598" font-family="Helvetica, Arial, 'DejaVu Sans', sans-serif" font-size="14" font-weight="normal" fill="#a0a0a0" text-anchor="middle">(poza mieszkaniem)</text>
<g transform="translate(755.0,714) rotate(20)">
<line x1="0" y1="40" x2="0" y2="-32" stroke="#1c1c1c" stroke-width="2"/>
<path d="M 0 -52 L 9 -26 L 0 -33 L -9 -26 Z" fill="#1c1c1c"/>
<circle cx="0" cy="0" r="4" fill="none" stroke="#1c1c1c" stroke-width="1.6"/>
<text x="0" y="-62" font-family="Helvetica, Arial, 'DejaVu Sans', sans-serif" font-size="19" font-weight="bold" fill="#111111" text-anchor="middle">N</text>
<text x="0" y="58" font-family="Helvetica, Arial, 'DejaVu Sans', sans-serif" font-size="13" font-weight="normal" fill="#777777" text-anchor="middle">S</text>
<text x="26" y="5" font-family="Helvetica, Arial, 'DejaVu Sans', sans-serif" font-size="13" font-weight="normal" fill="#777777" text-anchor="middle">E</text>
<text x="-26" y="5" font-family="Helvetica, Arial, 'DejaVu Sans', sans-serif" font-size="13" font-weight="normal" fill="#777777" text-anchor="middle">W</text>
</g>
<line x1="-100" y1="-62" x2="0" y2="-62" stroke="#5a5a5a" stroke-width="1.4"/>
<line x1="-105" y1="-57" x2="-95" y2="-67" stroke="#5a5a5a" stroke-width="1.4"/>
<line x1="-100" y1="0" x2="-100" y2="-71" stroke="#5a5a5a" stroke-width="0.8" stroke-dasharray="6 4"/>
<line x1="-5" y1="-57" x2="5" y2="-67" stroke="#5a5a5a" stroke-width="1.4"/>
<line x1="0" y1="0" x2="0" y2="-71" stroke="#5a5a5a" stroke-width="0.8" stroke-dasharray="6 4"/>
<text x="-50.0" y="-71" font-family="Helvetica, Arial, 'DejaVu Sans', sans-serif" font-size="15" fill="#5a5a5a" text-anchor="middle">100</text>
<line x1="0" y1="-62" x2="24" y2="-62" stroke="#5a5a5a" stroke-width="1.4"/>
<line x1="-5" y1="-57" x2="5" y2="-67" stroke="#5a5a5a" stroke-width="1.4"/>
<line x1="0" y1="0" x2="0" y2="-71" stroke="#5a5a5a" stroke-width="0.8" stroke-dasharray="6 4"/>
<line x1="19" y1="-57" x2="29" y2="-67" stroke="#5a5a5a" stroke-width="1.4"/>
<line x1="24" y1="0" x2="24" y2="-71" stroke="#5a5a5a" stroke-width="0.8" stroke-dasharray="6 4"/>
<text x="12.0" y="-78" font-family="Helvetica, Arial, 'DejaVu Sans', sans-serif" font-size="13" fill="#5a5a5a" text-anchor="middle">24</text>
<line x1="24" y1="-62" x2="357" y2="-62" stroke="#5a5a5a" stroke-width="1.4"/>
<line x1="19" y1="-57" x2="29" y2="-67" stroke="#5a5a5a" stroke-width="1.4"/>
<line x1="24" y1="0" x2="24" y2="-71" stroke="#5a5a5a" stroke-width="0.8" stroke-dasharray="6 4"/>
<line x1="352" y1="-57" x2="362" y2="-67" stroke="#5a5a5a" stroke-width="1.4"/>
<line x1="357" y1="0" x2="357" y2="-71" stroke="#5a5a5a" stroke-width="0.8" stroke-dasharray="6 4"/>
<text x="190.5" y="-71" font-family="Helvetica, Arial, 'DejaVu Sans', sans-serif" font-size="15" fill="#5a5a5a" text-anchor="middle">333</text>
<line x1="357" y1="-62" x2="369" y2="-62" stroke="#5a5a5a" stroke-width="1.4"/>
<line x1="352" y1="-57" x2="362" y2="-67" stroke="#5a5a5a" stroke-width="1.4"/>
<line x1="357" y1="0" x2="357" y2="-71" stroke="#5a5a5a" stroke-width="0.8" stroke-dasharray="6 4"/>
<line x1="364" y1="-57" x2="374" y2="-67" stroke="#5a5a5a" stroke-width="1.4"/>
<line x1="369" y1="0" x2="369" y2="-71" stroke="#5a5a5a" stroke-width="0.8" stroke-dasharray="6 4"/>
<text x="363.0" y="-78" font-family="Helvetica, Arial, 'DejaVu Sans', sans-serif" font-size="13" fill="#5a5a5a" text-anchor="middle">12</text>
<line x1="369" y1="-62" x2="514" y2="-62" stroke="#5a5a5a" stroke-width="1.4"/>
<line x1="364" y1="-57" x2="374" y2="-67" stroke="#5a5a5a" stroke-width="1.4"/>
<line x1="369" y1="0" x2="369" y2="-71" stroke="#5a5a5a" stroke-width="0.8" stroke-dasharray="6 4"/>
<line x1="509" y1="-57" x2="519" y2="-67" stroke="#5a5a5a" stroke-width="1.4"/>
<line x1="514" y1="0" x2="514" y2="-71" stroke="#5a5a5a" stroke-width="0.8" stroke-dasharray="6 4"/>
<text x="441.5" y="-71" font-family="Helvetica, Arial, 'DejaVu Sans', sans-serif" font-size="15" fill="#5a5a5a" text-anchor="middle">145</text>
<line x1="514" y1="-62" x2="522" y2="-62" stroke="#5a5a5a" stroke-width="1.4"/>
<line x1="509" y1="-57" x2="519" y2="-67" stroke="#5a5a5a" stroke-width="1.4"/>
<line x1="514" y1="0" x2="514" y2="-71" stroke="#5a5a5a" stroke-width="0.8" stroke-dasharray="6 4"/>
<line x1="517" y1="-57" x2="527" y2="-67" stroke="#5a5a5a" stroke-width="1.4"/>
<line x1="522" y1="0" x2="522" y2="-71" stroke="#5a5a5a" stroke-width="0.8" stroke-dasharray="6 4"/>
<text x="518.0" y="-78" font-family="Helvetica, Arial, 'DejaVu Sans', sans-serif" font-size="13" fill="#5a5a5a" text-anchor="middle">8</text>
<line x1="522" y1="-62" x2="600" y2="-62" stroke="#5a5a5a" stroke-width="1.4"/>
<line x1="517" y1="-57" x2="527" y2="-67" stroke="#5a5a5a" stroke-width="1.4"/>
<line x1="522" y1="0" x2="522" y2="-71" stroke="#5a5a5a" stroke-width="0.8" stroke-dasharray="6 4"/>
<line x1="595" y1="-57" x2="605" y2="-67" stroke="#5a5a5a" stroke-width="1.4"/>
<line x1="600" y1="0" x2="600" y2="-71" stroke="#5a5a5a" stroke-width="0.8" stroke-dasharray="6 4"/>
<text x="561.0" y="-71" font-family="Helvetica, Arial, 'DejaVu Sans', sans-serif" font-size="15" fill="#5a5a5a" text-anchor="middle">78</text>
<line x1="600" y1="-62" x2="612" y2="-62" stroke="#5a5a5a" stroke-width="1.4"/>
<line x1="595" y1="-57" x2="605" y2="-67" stroke="#5a5a5a" stroke-width="1.4"/>
<line x1="600" y1="0" x2="600" y2="-71" stroke="#5a5a5a" stroke-width="0.8" stroke-dasharray="6 4"/>
<line x1="607" y1="-57" x2="617" y2="-67" stroke="#5a5a5a" stroke-width="1.4"/>
<line x1="612" y1="0" x2="612" y2="-71" stroke="#5a5a5a" stroke-width="0.8" stroke-dasharray="6 4"/>
<text x="606.0" y="-78" font-family="Helvetica, Arial, 'DejaVu Sans', sans-serif" font-size="13" fill="#5a5a5a" text-anchor="middle">12</text>
<line x1="612" y1="-62" x2="982" y2="-62" stroke="#5a5a5a" stroke-width="1.4"/>
<line x1="607" y1="-57" x2="617" y2="-67" stroke="#5a5a5a" stroke-width="1.4"/>
<line x1="612" y1="0" x2="612" y2="-71" stroke="#5a5a5a" stroke-width="0.8" stroke-dasharray="6 4"/>
<line x1="977" y1="-57" x2="987" y2="-67" stroke="#5a5a5a" stroke-width="1.4"/>
<line x1="982" y1="0" x2="982" y2="-71" stroke="#5a5a5a" stroke-width="0.8" stroke-dasharray="6 4"/>
<text x="797.0" y="-71" font-family="Helvetica, Arial, 'DejaVu Sans', sans-serif" font-size="15" fill="#5a5a5a" text-anchor="middle">370</text>
<line x1="982" y1="-62" x2="1006" y2="-62" stroke="#5a5a5a" stroke-width="1.4"/>
<line x1="977" y1="-57" x2="987" y2="-67" stroke="#5a5a5a" stroke-width="1.4"/>
<line x1="982" y1="0" x2="982" y2="-71" stroke="#5a5a5a" stroke-width="0.8" stroke-dasharray="6 4"/>
<line x1="1001" y1="-57" x2="1011" y2="-67" stroke="#5a5a5a" stroke-width="1.4"/>
<line x1="1006" y1="0" x2="1006" y2="-71" stroke="#5a5a5a" stroke-width="0.8" stroke-dasharray="6 4"/>
<text x="994.0" y="-78" font-family="Helvetica, Arial, 'DejaVu Sans', sans-serif" font-size="13" fill="#5a5a5a" text-anchor="middle">24</text>
<line x1="0" y1="-128" x2="1006" y2="-128" stroke="#5a5a5a" stroke-width="1.4"/>
<line x1="-5" y1="-123" x2="5" y2="-133" stroke="#5a5a5a" stroke-width="1.4"/>
<line x1="0" y1="0" x2="0" y2="-137" stroke="#5a5a5a" stroke-width="0.8" stroke-dasharray="6 4"/>
<line x1="1001" y1="-123" x2="1011" y2="-133" stroke="#5a5a5a" stroke-width="1.4"/>
<line x1="1006" y1="0" x2="1006" y2="-137" stroke="#5a5a5a" stroke-width="0.8" stroke-dasharray="6 4"/>
<text x="503.0" y="-137" font-family="Helvetica, Arial, 'DejaVu Sans', sans-serif" font-size="15" fill="#5a5a5a" text-anchor="middle">1006</text>
<line x1="-155" y1="0" x2="-155" y2="100" stroke="#5a5a5a" stroke-width="1.4"/>
<line x1="-160" y1="5" x2="-150" y2="-5" stroke="#5a5a5a" stroke-width="1.4"/>
<line x1="0" y1="0" x2="-164" y2="0" stroke="#5a5a5a" stroke-width="0.8" stroke-dasharray="6 4"/>
<line x1="-160" y1="105" x2="-150" y2="95" stroke="#5a5a5a" stroke-width="1.4"/>
<line x1="0" y1="100" x2="-164" y2="100" stroke="#5a5a5a" stroke-width="0.8" stroke-dasharray="6 4"/>
<text x="-164" y="50.0" font-family="Helvetica, Arial, 'DejaVu Sans', sans-serif" font-size="15" fill="#5a5a5a" text-anchor="middle" transform="rotate(-90 -164 50.0)">100</text>
<line x1="-155" y1="100" x2="-155" y2="240" stroke="#5a5a5a" stroke-width="1.4"/>
<line x1="-160" y1="105" x2="-150" y2="95" stroke="#5a5a5a" stroke-width="1.4"/>
<line x1="0" y1="100" x2="-164" y2="100" stroke="#5a5a5a" stroke-width="0.8" stroke-dasharray="6 4"/>
<line x1="-160" y1="245" x2="-150" y2="235" stroke="#5a5a5a" stroke-width="1.4"/>
<line x1="0" y1="240" x2="-164" y2="240" stroke="#5a5a5a" stroke-width="0.8" stroke-dasharray="6 4"/>
<text x="-164" y="170.0" font-family="Helvetica, Arial, 'DejaVu Sans', sans-serif" font-size="15" fill="#5a5a5a" text-anchor="middle" transform="rotate(-90 -164 170.0)">okno 140</text>
<line x1="-155" y1="240" x2="-155" y2="322" stroke="#5a5a5a" stroke-width="1.4"/>
<line x1="-160" y1="245" x2="-150" y2="235" stroke="#5a5a5a" stroke-width="1.4"/>
<line x1="0" y1="240" x2="-164" y2="240" stroke="#5a5a5a" stroke-width="0.8" stroke-dasharray="6 4"/>
<line x1="-160" y1="327" x2="-150" y2="317" stroke="#5a5a5a" stroke-width="1.4"/>
<line x1="0" y1="322" x2="-164" y2="322" stroke="#5a5a5a" stroke-width="0.8" stroke-dasharray="6 4"/>
<text x="-164" y="281.0" font-family="Helvetica, Arial, 'DejaVu Sans', sans-serif" font-size="15" fill="#5a5a5a" text-anchor="middle" transform="rotate(-90 -164 281.0)">drzwi balk. 82</text>
<line x1="-155" y1="322" x2="-155" y2="420" stroke="#5a5a5a" stroke-width="1.4"/>
<line x1="-160" y1="327" x2="-150" y2="317" stroke="#5a5a5a" stroke-width="1.4"/>
<line x1="0" y1="322" x2="-164" y2="322" stroke="#5a5a5a" stroke-width="0.8" stroke-dasharray="6 4"/>
<line x1="-160" y1="425" x2="-150" y2="415" stroke="#5a5a5a" stroke-width="1.4"/>
<line x1="0" y1="420" x2="-164" y2="420" stroke="#5a5a5a" stroke-width="0.8" stroke-dasharray="6 4"/>
<text x="-164" y="371.0" font-family="Helvetica, Arial, 'DejaVu Sans', sans-serif" font-size="15" fill="#5a5a5a" text-anchor="middle" transform="rotate(-90 -164 371.0)">okno 98</text>
<line x1="-155" y1="420" x2="-155" y2="551" stroke="#5a5a5a" stroke-width="1.4"/>
<line x1="-160" y1="425" x2="-150" y2="415" stroke="#5a5a5a" stroke-width="1.4"/>
<line x1="0" y1="420" x2="-164" y2="420" stroke="#5a5a5a" stroke-width="0.8" stroke-dasharray="6 4"/>
<line x1="-160" y1="556" x2="-150" y2="546" stroke="#5a5a5a" stroke-width="1.4"/>
<line x1="0" y1="551" x2="-164" y2="551" stroke="#5a5a5a" stroke-width="0.8" stroke-dasharray="6 4"/>
<text x="-164" y="485.5" font-family="Helvetica, Arial, 'DejaVu Sans', sans-serif" font-size="15" fill="#5a5a5a" text-anchor="middle" transform="rotate(-90 -164 485.5)">131</text>
<line x1="-155" y1="551" x2="-155" y2="689" stroke="#5a5a5a" stroke-width="1.4"/>
<line x1="-160" y1="556" x2="-150" y2="546" stroke="#5a5a5a" stroke-width="1.4"/>
<line x1="0" y1="551" x2="-164" y2="551" stroke="#5a5a5a" stroke-width="0.8" stroke-dasharray="6 4"/>
<line x1="-160" y1="694" x2="-150" y2="684" stroke="#5a5a5a" stroke-width="1.4"/>
<line x1="0" y1="689" x2="-164" y2="689" stroke="#5a5a5a" stroke-width="0.8" stroke-dasharray="6 4"/>
<text x="-164" y="620.0" font-family="Helvetica, Arial, 'DejaVu Sans', sans-serif" font-size="15" fill="#5a5a5a" text-anchor="middle" transform="rotate(-90 -164 620.0)">okno 138</text>
<line x1="-155" y1="689" x2="-155" y2="756" stroke="#5a5a5a" stroke-width="1.4"/>
<line x1="-160" y1="694" x2="-150" y2="684" stroke="#5a5a5a" stroke-width="1.4"/>
<line x1="0" y1="689" x2="-164" y2="689" stroke="#5a5a5a" stroke-width="0.8" stroke-dasharray="6 4"/>
<line x1="-160" y1="761" x2="-150" y2="751" stroke="#5a5a5a" stroke-width="1.4"/>
<line x1="0" y1="756" x2="-164" y2="756" stroke="#5a5a5a" stroke-width="0.8" stroke-dasharray="6 4"/>
<text x="-164" y="722.5" font-family="Helvetica, Arial, 'DejaVu Sans', sans-serif" font-size="15" fill="#5a5a5a" text-anchor="middle" transform="rotate(-90 -164 722.5)">67</text>
<line x1="-225" y1="0" x2="-225" y2="15" stroke="#5a5a5a" stroke-width="1.4"/>
<line x1="-230" y1="5" x2="-220" y2="-5" stroke="#5a5a5a" stroke-width="1.4"/>
<line x1="0" y1="0" x2="-234" y2="0" stroke="#5a5a5a" stroke-width="0.8" stroke-dasharray="6 4"/>
<line x1="-230" y1="20" x2="-220" y2="10" stroke="#5a5a5a" stroke-width="1.4"/>
<line x1="0" y1="15" x2="-234" y2="15" stroke="#5a5a5a" stroke-width="0.8" stroke-dasharray="6 4"/>
<text x="-241" y="7.5" font-family="Helvetica, Arial, 'DejaVu Sans', sans-serif" font-size="13" fill="#5a5a5a" text-anchor="middle" transform="rotate(-90 -241 7.5)">15</text>
<line x1="-225" y1="15" x2="-225" y2="239" stroke="#5a5a5a" stroke-width="1.4"/>
<line x1="-230" y1="20" x2="-220" y2="10" stroke="#5a5a5a" stroke-width="1.4"/>
<line x1="0" y1="15" x2="-234" y2="15" stroke="#5a5a5a" stroke-width="0.8" stroke-dasharray="6 4"/>
<line x1="-230" y1="244" x2="-220" y2="234" stroke="#5a5a5a" stroke-width="1.4"/>
<line x1="0" y1="239" x2="-234" y2="239" stroke="#5a5a5a" stroke-width="0.8" stroke-dasharray="6 4"/>
<text x="-234" y="127.0" font-family="Helvetica, Arial, 'DejaVu Sans', sans-serif" font-size="15" fill="#5a5a5a" text-anchor="middle" transform="rotate(-90 -234 127.0)">224</text>
<line x1="-225" y1="239" x2="-225" y2="254" stroke="#5a5a5a" stroke-width="1.4"/>
<line x1="-230" y1="244" x2="-220" y2="234" stroke="#5a5a5a" stroke-width="1.4"/>
<line x1="0" y1="239" x2="-234" y2="239" stroke="#5a5a5a" stroke-width="0.8" stroke-dasharray="6 4"/>
<line x1="-230" y1="259" x2="-220" y2="249" stroke="#5a5a5a" stroke-width="1.4"/>
<line x1="0" y1="254" x2="-234" y2="254" stroke="#5a5a5a" stroke-width="0.8" stroke-dasharray="6 4"/>
<text x="-241" y="246.5" font-family="Helvetica, Arial, 'DejaVu Sans', sans-serif" font-size="13" fill="#5a5a5a" text-anchor="middle" transform="rotate(-90 -241 246.5)">15</text>
<line x1="-225" y1="254" x2="-225" y2="499" stroke="#5a5a5a" stroke-width="1.4"/>
<line x1="-230" y1="259" x2="-220" y2="249" stroke="#5a5a5a" stroke-width="1.4"/>
<line x1="0" y1="254" x2="-234" y2="254" stroke="#5a5a5a" stroke-width="0.8" stroke-dasharray="6 4"/>
<line x1="-230" y1="504" x2="-220" y2="494" stroke="#5a5a5a" stroke-width="1.4"/>
<line x1="0" y1="499" x2="-234" y2="499" stroke="#5a5a5a" stroke-width="0.8" stroke-dasharray="6 4"/>
<text x="-234" y="376.5" font-family="Helvetica, Arial, 'DejaVu Sans', sans-serif" font-size="15" fill="#5a5a5a" text-anchor="middle" transform="rotate(-90 -234 376.5)">245</text>
<line x1="-225" y1="499" x2="-225" y2="514" stroke="#5a5a5a" stroke-width="1.4"/>
<line x1="-230" y1="504" x2="-220" y2="494" stroke="#5a5a5a" stroke-width="1.4"/>
<line x1="0" y1="499" x2="-234" y2="499" stroke="#5a5a5a" stroke-width="0.8" stroke-dasharray="6 4"/>
<line x1="-230" y1="519" x2="-220" y2="509" stroke="#5a5a5a" stroke-width="1.4"/>
<line x1="0" y1="514" x2="-234" y2="514" stroke="#5a5a5a" stroke-width="0.8" stroke-dasharray="6 4"/>
<text x="-241" y="506.5" font-family="Helvetica, Arial, 'DejaVu Sans', sans-serif" font-size="13" fill="#5a5a5a" text-anchor="middle" transform="rotate(-90 -241 506.5)">15</text>
<line x1="-225" y1="514" x2="-225" y2="741" stroke="#5a5a5a" stroke-width="1.4"/>
<line x1="-230" y1="519" x2="-220" y2="509" stroke="#5a5a5a" stroke-width="1.4"/>
<line x1="0" y1="514" x2="-234" y2="514" stroke="#5a5a5a" stroke-width="0.8" stroke-dasharray="6 4"/>
<line x1="-230" y1="746" x2="-220" y2="736" stroke="#5a5a5a" stroke-width="1.4"/>
<line x1="0" y1="741" x2="-234" y2="741" stroke="#5a5a5a" stroke-width="0.8" stroke-dasharray="6 4"/>
<text x="-234" y="627.5" font-family="Helvetica, Arial, 'DejaVu Sans', sans-serif" font-size="15" fill="#5a5a5a" text-anchor="middle" transform="rotate(-90 -234 627.5)">227</text>
<line x1="-225" y1="741" x2="-225" y2="756" stroke="#5a5a5a" stroke-width="1.4"/>
<line x1="-230" y1="746" x2="-220" y2="736" stroke="#5a5a5a" stroke-width="1.4"/>
<line x1="0" y1="741" x2="-234" y2="741" stroke="#5a5a5a" stroke-width="0.8" stroke-dasharray="6 4"/>
<line x1="-230" y1="761" x2="-220" y2="751" stroke="#5a5a5a" stroke-width="1.4"/>
<line x1="0" y1="756" x2="-234" y2="756" stroke="#5a5a5a" stroke-width="0.8" stroke-dasharray="6 4"/>
<text x="-241" y="748.5" font-family="Helvetica, Arial, 'DejaVu Sans', sans-serif" font-size="13" fill="#5a5a5a" text-anchor="middle" transform="rotate(-90 -241 748.5)">15</text>
<line x1="-295" y1="0" x2="-295" y2="756" stroke="#5a5a5a" stroke-width="1.4"/>
<line x1="-300" y1="5" x2="-290" y2="-5" stroke="#5a5a5a" stroke-width="1.4"/>
<line x1="0" y1="0" x2="-304" y2="0" stroke="#5a5a5a" stroke-width="0.8" stroke-dasharray="6 4"/>
<line x1="-300" y1="761" x2="-290" y2="751" stroke="#5a5a5a" stroke-width="1.4"/>
<line x1="0" y1="756" x2="-304" y2="756" stroke="#5a5a5a" stroke-width="0.8" stroke-dasharray="6 4"/>
<text x="-304" y="378.0" font-family="Helvetica, Arial, 'DejaVu Sans', sans-serif" font-size="15" fill="#5a5a5a" text-anchor="middle" transform="rotate(-90 -304 378.0)">756</text>
<line x1="1068" y1="0" x2="1068" y2="100" stroke="#5a5a5a" stroke-width="1.4"/>
<line x1="1063" y1="5" x2="1073" y2="-5" stroke="#5a5a5a" stroke-width="1.4"/>
<line x1="1006" y1="0" x2="1077" y2="0" stroke="#5a5a5a" stroke-width="0.8" stroke-dasharray="6 4"/>
<line x1="1063" y1="105" x2="1073" y2="95" stroke="#5a5a5a" stroke-width="1.4"/>
<line x1="1006" y1="100" x2="1077" y2="100" stroke="#5a5a5a" stroke-width="0.8" stroke-dasharray="6 4"/>
<text x="1059" y="50.0" font-family="Helvetica, Arial, 'DejaVu Sans', sans-serif" font-size="15" fill="#5a5a5a" text-anchor="middle" transform="rotate(-90 1059 50.0)">100</text>
<line x1="1068" y1="100" x2="1068" y2="236" stroke="#5a5a5a" stroke-width="1.4"/>
<line x1="1063" y1="105" x2="1073" y2="95" stroke="#5a5a5a" stroke-width="1.4"/>
<line x1="1006" y1="100" x2="1077" y2="100" stroke="#5a5a5a" stroke-width="0.8" stroke-dasharray="6 4"/>
<line x1="1063" y1="241" x2="1073" y2="231" stroke="#5a5a5a" stroke-width="1.4"/>
<line x1="1006" y1="236" x2="1077" y2="236" stroke="#5a5a5a" stroke-width="0.8" stroke-dasharray="6 4"/>
<text x="1059" y="168.0" font-family="Helvetica, Arial, 'DejaVu Sans', sans-serif" font-size="15" fill="#5a5a5a" text-anchor="middle" transform="rotate(-90 1059 168.0)">okno 136</text>
<line x1="1068" y1="236" x2="1068" y2="257" stroke="#5a5a5a" stroke-width="1.4"/>
<line x1="1063" y1="241" x2="1073" y2="231" stroke="#5a5a5a" stroke-width="1.4"/>
<line x1="1006" y1="236" x2="1077" y2="236" stroke="#5a5a5a" stroke-width="0.8" stroke-dasharray="6 4"/>
<line x1="1063" y1="262" x2="1073" y2="252" stroke="#5a5a5a" stroke-width="1.4"/>
<line x1="1006" y1="257" x2="1077" y2="257" stroke="#5a5a5a" stroke-width="0.8" stroke-dasharray="6 4"/>
<text x="1052" y="246.5" font-family="Helvetica, Arial, 'DejaVu Sans', sans-serif" font-size="13" fill="#5a5a5a" text-anchor="middle" transform="rotate(-90 1052 246.5)">21</text>
<line x1="1068" y1="257" x2="1068" y2="422" stroke="#5a5a5a" stroke-width="1.4"/>
<line x1="1063" y1="262" x2="1073" y2="252" stroke="#5a5a5a" stroke-width="1.4"/>
<line x1="1006" y1="257" x2="1077" y2="257" stroke="#5a5a5a" stroke-width="0.8" stroke-dasharray="6 4"/>
<line x1="1063" y1="427" x2="1073" y2="417" stroke="#5a5a5a" stroke-width="1.4"/>
<line x1="1006" y1="422" x2="1077" y2="422" stroke="#5a5a5a" stroke-width="0.8" stroke-dasharray="6 4"/>
<text x="1059" y="339.5" font-family="Helvetica, Arial, 'DejaVu Sans', sans-serif" font-size="15" fill="#5a5a5a" text-anchor="middle" transform="rotate(-90 1059 339.5)">okno 165</text>
<line x1="1068" y1="422" x2="1068" y2="514" stroke="#5a5a5a" stroke-width="1.4"/>
<line x1="1063" y1="427" x2="1073" y2="417" stroke="#5a5a5a" stroke-width="1.4"/>
<line x1="1006" y1="422" x2="1077" y2="422" stroke="#5a5a5a" stroke-width="0.8" stroke-dasharray="6 4"/>
<line x1="1063" y1="519" x2="1073" y2="509" stroke="#5a5a5a" stroke-width="1.4"/>
<line x1="1006" y1="514" x2="1077" y2="514" stroke="#5a5a5a" stroke-width="0.8" stroke-dasharray="6 4"/>
<text x="1059" y="468.0" font-family="Helvetica, Arial, 'DejaVu Sans', sans-serif" font-size="15" fill="#5a5a5a" text-anchor="middle" transform="rotate(-90 1059 468.0)">92</text>
<line x1="0" y1="818" x2="504" y2="818" stroke="#5a5a5a" stroke-width="1.4"/>
<line x1="-5" y1="823" x2="5" y2="813" stroke="#5a5a5a" stroke-width="1.4"/>
<line x1="0" y1="756" x2="0" y2="827" stroke="#5a5a5a" stroke-width="0.8" stroke-dasharray="6 4"/>
<line x1="499" y1="823" x2="509" y2="813" stroke="#5a5a5a" stroke-width="1.4"/>
<line x1="504" y1="756" x2="504" y2="827" stroke="#5a5a5a" stroke-width="0.8" stroke-dasharray="6 4"/>
<text x="252.0" y="809" font-family="Helvetica, Arial, 'DejaVu Sans', sans-serif" font-size="15" fill="#5a5a5a" text-anchor="middle">504</text>
<line x1="504" y1="818" x2="1006" y2="818" stroke="#5a5a5a" stroke-width="1.4"/>
<line x1="499" y1="823" x2="509" y2="813" stroke="#5a5a5a" stroke-width="1.4"/>
<line x1="504" y1="514" x2="504" y2="827" stroke="#5a5a5a" stroke-width="0.8" stroke-dasharray="6 4"/>
<line x1="1001" y1="823" x2="1011" y2="813" stroke="#5a5a5a" stroke-width="1.4"/>
<line x1="1006" y1="514" x2="1006" y2="827" stroke="#5a5a5a" stroke-width="0.8" stroke-dasharray="6 4"/>
<text x="755.0" y="809" font-family="Helvetica, Arial, 'DejaVu Sans', sans-serif" font-size="15" fill="#5a5a5a" text-anchor="middle">502 (klatka schodowa)</text>
<line x1="0" y1="884" x2="24" y2="884" stroke="#5a5a5a" stroke-width="1.4"/>
<line x1="-5" y1="889" x2="5" y2="879" stroke="#5a5a5a" stroke-width="1.4"/>
<line x1="0" y1="756" x2="0" y2="893" stroke="#5a5a5a" stroke-width="0.8" stroke-dasharray="6 4"/>
<line x1="19" y1="889" x2="29" y2="879" stroke="#5a5a5a" stroke-width="1.4"/>
<line x1="24" y1="756" x2="24" y2="893" stroke="#5a5a5a" stroke-width="0.8" stroke-dasharray="6 4"/>
<text x="12.0" y="868" font-family="Helvetica, Arial, 'DejaVu Sans', sans-serif" font-size="13" fill="#5a5a5a" text-anchor="middle">24</text>
<line x1="24" y1="884" x2="489" y2="884" stroke="#5a5a5a" stroke-width="1.4"/>
<line x1="19" y1="889" x2="29" y2="879" stroke="#5a5a5a" stroke-width="1.4"/>
<line x1="24" y1="756" x2="24" y2="893" stroke="#5a5a5a" stroke-width="0.8" stroke-dasharray="6 4"/>
<line x1="484" y1="889" x2="494" y2="879" stroke="#5a5a5a" stroke-width="1.4"/>
<line x1="489" y1="756" x2="489" y2="893" stroke="#5a5a5a" stroke-width="0.8" stroke-dasharray="6 4"/>
<text x="256.5" y="875" font-family="Helvetica, Arial, 'DejaVu Sans', sans-serif" font-size="15" fill="#5a5a5a" text-anchor="middle">465</text>
<line x1="489" y1="884" x2="504" y2="884" stroke="#5a5a5a" stroke-width="1.4"/>
<line x1="484" y1="889" x2="494" y2="879" stroke="#5a5a5a" stroke-width="1.4"/>
<line x1="489" y1="756" x2="489" y2="893" stroke="#5a5a5a" stroke-width="0.8" stroke-dasharray="6 4"/>
<line x1="499" y1="889" x2="509" y2="879" stroke="#5a5a5a" stroke-width="1.4"/>
<line x1="504" y1="756" x2="504" y2="893" stroke="#5a5a5a" stroke-width="0.8" stroke-dasharray="6 4"/>
<text x="496.5" y="868" font-family="Helvetica, Arial, 'DejaVu Sans', sans-serif" font-size="13" fill="#5a5a5a" text-anchor="middle">15</text>
<line x1="0" y1="950" x2="1006" y2="950" stroke="#5a5a5a" stroke-width="1.4"/>
<line x1="-5" y1="955" x2="5" y2="945" stroke="#5a5a5a" stroke-width="1.4"/>
<line x1="0" y1="756" x2="0" y2="959" stroke="#5a5a5a" stroke-width="0.8" stroke-dasharray="6 4"/>
<line x1="1001" y1="955" x2="1011" y2="945" stroke="#5a5a5a" stroke-width="1.4"/>
<line x1="1006" y1="756" x2="1006" y2="959" stroke="#5a5a5a" stroke-width="0.8" stroke-dasharray="6 4"/>
<text x="503.0" y="941" font-family="Helvetica, Arial, 'DejaVu Sans', sans-serif" font-size="15" fill="#5a5a5a" text-anchor="middle">1006</text>
</g>
<g transform="translate(1500,200)">
<text x="0" y="0" font-family="Helvetica, Arial, 'DejaVu Sans', sans-serif" font-size="19" font-weight="bold" fill="#111111">ZESTAWIENIE POWIERZCHNI</text>
<line x1="0" y1="11" x2="430" y2="11" stroke="#111111" stroke-width="1.5"/>
<line x1="0" y1="20" x2="430" y2="20" stroke="#999999" stroke-width="1"/>
<text x="0" y="36" font-family="Helvetica, Arial, 'DejaVu Sans', sans-serif" font-size="15" font-weight="bold" fill="#111111">Pomieszczenie</text>
<text x="290" y="36" font-family="Helvetica, Arial, 'DejaVu Sans', sans-serif" font-size="14" text-anchor="middle" fill="#444444">wymiar [cm]</text>
<text x="430" y="36" font-family="Helvetica, Arial, 'DejaVu Sans', sans-serif" font-size="15" font-weight="bold" text-anchor="end" fill="#111111">pow. [m²]</text>
<text x="0" y="64" font-family="Helvetica, Arial, 'DejaVu Sans', sans-serif" font-size="15" font-weight="normal" fill="#111111">Kuchnia</text>
<text x="290" y="64" font-family="Helvetica, Arial, 'DejaVu Sans', sans-serif" font-size="14" text-anchor="middle" fill="#444444">370 × 224</text>
<text x="430" y="64" font-family="Helvetica, Arial, 'DejaVu Sans', sans-serif" font-size="15" font-weight="normal" text-anchor="end" fill="#111111">8,29</text>
<text x="0" y="92" font-family="Helvetica, Arial, 'DejaVu Sans', sans-serif" font-size="15" font-weight="normal" fill="#111111">WC</text>
<text x="290" y="92" font-family="Helvetica, Arial, 'DejaVu Sans', sans-serif" font-size="14" text-anchor="middle" fill="#444444">78 × 145</text>
<text x="430" y="92" font-family="Helvetica, Arial, 'DejaVu Sans', sans-serif" font-size="15" font-weight="normal" text-anchor="end" fill="#111111">1,13</text>
<text x="0" y="120" font-family="Helvetica, Arial, 'DejaVu Sans', sans-serif" font-size="15" font-weight="normal" fill="#111111">Łazienka</text>
<text x="290" y="120" font-family="Helvetica, Arial, 'DejaVu Sans', sans-serif" font-size="14" text-anchor="middle" fill="#444444">145 × 224</text>
<text x="430" y="120" font-family="Helvetica, Arial, 'DejaVu Sans', sans-serif" font-size="15" font-weight="normal" text-anchor="end" fill="#111111">3,25</text>
<text x="0" y="148" font-family="Helvetica, Arial, 'DejaVu Sans', sans-serif" font-size="15" font-weight="normal" fill="#111111">Przedpokój</text>
<text x="290" y="148" font-family="Helvetica, Arial, 'DejaVu Sans', sans-serif" font-size="14" text-anchor="middle" fill="#444444">231 × 245 + 78 × 94</text>
<text x="430" y="148" font-family="Helvetica, Arial, 'DejaVu Sans', sans-serif" font-size="15" font-weight="normal" text-anchor="end" fill="#111111">6,39</text>
<text x="0" y="176" font-family="Helvetica, Arial, 'DejaVu Sans', sans-serif" font-size="15" font-weight="normal" fill="#111111">Pokój</text>
<text x="290" y="176" font-family="Helvetica, Arial, 'DejaVu Sans', sans-serif" font-size="14" text-anchor="middle" fill="#444444">370 × 245</text>
<text x="430" y="176" font-family="Helvetica, Arial, 'DejaVu Sans', sans-serif" font-size="15" font-weight="normal" text-anchor="end" fill="#111111">9,07</text>
<text x="0" y="204" font-family="Helvetica, Arial, 'DejaVu Sans', sans-serif" font-size="15" font-weight="normal" fill="#111111">Pokój</text>
<text x="290" y="204" font-family="Helvetica, Arial, 'DejaVu Sans', sans-serif" font-size="14" text-anchor="middle" fill="#444444">465 × 227</text>
<text x="430" y="204" font-family="Helvetica, Arial, 'DejaVu Sans', sans-serif" font-size="15" font-weight="normal" text-anchor="end" fill="#111111">10,56</text>
<text x="0" y="232" font-family="Helvetica, Arial, 'DejaVu Sans', sans-serif" font-size="15" font-weight="normal" fill="#111111">Salon</text>
<text x="290" y="232" font-family="Helvetica, Arial, 'DejaVu Sans', sans-serif" font-size="14" text-anchor="middle" fill="#444444">333 × 484</text>
<text x="430" y="232" font-family="Helvetica, Arial, 'DejaVu Sans', sans-serif" font-size="15" font-weight="normal" text-anchor="end" fill="#111111">16,12</text>
<line x1="0" y1="244" x2="430" y2="244" stroke="#999999" stroke-width="1"/>
<text x="0" y="260" font-family="Helvetica, Arial, 'DejaVu Sans', sans-serif" font-size="15" font-weight="bold" fill="#111111">Razem (bez balkonu)</text>
<text x="290" y="260" font-family="Helvetica, Arial, 'DejaVu Sans', sans-serif" font-size="14" text-anchor="middle" fill="#444444"></text>
<text x="430" y="260" font-family="Helvetica, Arial, 'DejaVu Sans', sans-serif" font-size="15" font-weight="bold" text-anchor="end" fill="#111111">54,80</text>
<text x="0" y="288" font-family="Helvetica, Arial, 'DejaVu Sans', sans-serif" font-size="15" font-weight="normal" fill="#111111">Balkon</text>
<text x="290" y="288" font-family="Helvetica, Arial, 'DejaVu Sans', sans-serif" font-size="14" text-anchor="middle" fill="#444444">484 × 100</text>
<text x="430" y="288" font-family="Helvetica, Arial, 'DejaVu Sans', sans-serif" font-size="15" font-weight="normal" text-anchor="end" fill="#111111">4,84</text>
</g>
<g transform="translate(1500,1410)">
<rect x="0" y="0" width="90" height="13" fill="#1c1c1c" stroke="#1c1c1c" stroke-width="1.5"/>
<rect x="90" y="0" width="90" height="13" fill="#ffffff" stroke="#1c1c1c" stroke-width="1.5"/>
<rect x="180" y="0" width="90" height="13" fill="#1c1c1c" stroke="#1c1c1c" stroke-width="1.5"/>
<rect x="270" y="0" width="90" height="13" fill="#ffffff" stroke="#1c1c1c" stroke-width="1.5"/>
<rect x="360" y="0" width="90" height="13" fill="#1c1c1c" stroke="#1c1c1c" stroke-width="1.5"/>
<text x="0" y="33" font-family="Helvetica, Arial, 'DejaVu Sans', sans-serif" font-size="14" text-anchor="middle" fill="#111111">0</text>
<text x="90" y="33" font-family="Helvetica, Arial, 'DejaVu Sans', sans-serif" font-size="14" text-anchor="middle" fill="#111111">1</text>
<text x="180" y="33" font-family="Helvetica, Arial, 'DejaVu Sans', sans-serif" font-size="14" text-anchor="middle" fill="#111111">2</text>
<text x="270" y="33" font-family="Helvetica, Arial, 'DejaVu Sans', sans-serif" font-size="14" text-anchor="middle" fill="#111111">3</text>
<text x="360" y="33" font-family="Helvetica, Arial, 'DejaVu Sans', sans-serif" font-size="14" text-anchor="middle" fill="#111111">4</text>
<text x="450" y="33" font-family="Helvetica, Arial, 'DejaVu Sans', sans-serif" font-size="14" text-anchor="middle" fill="#111111">5</text>
<text x="475" y="33" font-family="Helvetica, Arial, 'DejaVu Sans', sans-serif" font-size="14" fill="#111111">m</text>
</g></svg>